<svg xmlns="http://www.w3.org/2000/svg" width="30" height="30" viewBox="0 0 30 30">
  <defs>
    <style>
      .cls-1 {
        fill: #2d2d2d;
        fill-rule: evenodd;
      }
    </style>
  </defs>
  <path id="football_copy" data-name="football copy" class="cls-1" d="M14.942,0A15,15,0,1,0,30,14.937,14.988,14.988,0,0,0,14.942,0Zm11.787,8.87a13.1,13.1,0,0,1,1.428,4.63l-2.48-1.8ZM25.543,7.012l-1.6,4.3-4.248,1.3L15.821,9.67V5.279l3.7-2.714A13.359,13.359,0,0,1,25.543,7.012ZM18.476,13.89L17.114,18.1h-4.48l-1.412-4.389L14.929,11.2ZM14.942,1.758a13.392,13.392,0,0,1,2.408.218L14.942,3.743l-2.4-1.764A13.149,13.149,0,0,1,14.942,1.758Zm-4.562.818,3.689,2.7V9.663L10.04,12.39,6.115,11.058,4.731,6.633A13.243,13.243,0,0,1,10.38,2.575ZM3.468,8.484l0.9,2.879L1.9,13.081A13.184,13.184,0,0,1,3.468,8.484Zm0.4,13.689a13.2,13.2,0,0,1-2.1-6.857l3.749-2.606,3.976,1.349,1.524,4.752-2.532,3.4ZM5.225,23.94l3.044,0.023L9.157,26.9A13.265,13.265,0,0,1,5.225,23.94ZM18.3,27.813a13.333,13.333,0,0,1-3.361.429,13.093,13.093,0,0,1-3.7-.532L9.891,23.254l2.519-3.395h4.907l2.479,3.5Zm2.1-.741,0.977-2.913,3.088,0.07A13.356,13.356,0,0,1,20.4,27.073ZM21.273,22.4l-2.541-3.6,1.46-4.5,4.269-1.31,3.763,2.728A13.124,13.124,0,0,1,25.895,22.5Z"/>
</svg>
