<svg xmlns="http://www.w3.org/2000/svg" width="18" height="18" viewBox="0 0 18 18">
  <defs>
    <style>
      .cls-1 {
        fill: #fff;
        fill-rule: evenodd;
      }
    </style>
  </defs>
  <path id="search" class="cls-1" d="M12.488,11.75A6.88,6.88,0,0,0,14.412,7,7.114,7.114,0,0,0,7.206,0,7.114,7.114,0,0,0,0,7a7.114,7.114,0,0,0,7.206,7,7.31,7.31,0,0,0,4.315-1.394l5.358,5.2a0.653,0.653,0,0,0,.457.19,0.639,0.639,0,0,0,.457-1.087ZM1.3,7a5.824,5.824,0,0,1,5.9-5.733A5.824,5.824,0,0,1,13.108,7a5.818,5.818,0,0,1-5.9,5.732A5.824,5.824,0,0,1,1.3,7Z"/>
</svg>
