<svg xmlns="http://www.w3.org/2000/svg" width="25" height="26" viewBox="0 0 25 26">
  <defs>
    <style>
      .cls-1 {
        fill: #fff;
        fill-rule: evenodd;
      }
    </style>
  </defs>
  <path class="cls-1" d="M5.066,17.283a26.783,26.783,0,0,0,8.855,7.187,13.433,13.433,0,0,0,4.956,1.519C19,25.995,19.111,26,19.231,26a4.039,4.039,0,0,0,3.182-1.417,0.114,0.114,0,0,0,.021-0.027,13.67,13.67,0,0,1,1-1.078c0.244-.242.494-0.5,0.733-0.754a2.665,2.665,0,0,0-.011-3.874l-3.125-3.238a2.492,2.492,0,0,0-1.83-.873,2.575,2.575,0,0,0-1.851.867l-1.861,1.929c-0.172-.1-0.348-0.194-0.515-0.28a6.345,6.345,0,0,1-.572-0.323A19.967,19.967,0,0,1,9.7,12.494,11.828,11.828,0,0,1,8.108,9.864C8.6,9.407,9.055,8.927,9.5,8.458c0.156-.167.317-0.334,0.478-0.5a2.807,2.807,0,0,0,.863-1.94,2.784,2.784,0,0,0-.863-1.939L8.425,2.473C8.243,2.284,8.072,2.1,7.9,1.913,7.552,1.546,7.193,1.169,6.839.83A2.55,2.55,0,0,0,5.009,0,2.625,2.625,0,0,0,3.158.835L1.213,2.85A4.205,4.205,0,0,0,.022,5.5a10.292,10.292,0,0,0,.723,4.31A25.278,25.278,0,0,0,5.066,17.283ZM1.291,5.614a2.894,2.894,0,0,1,.827-1.832l1.934-2A1.379,1.379,0,0,1,5.009,1.32a1.311,1.311,0,0,1,.936.469c0.348,0.334.676,0.684,1.03,1.056,0.177,0.189.359,0.377,0.541,0.571l1.55,1.605a1.484,1.484,0,0,1,.489,1.007,1.484,1.484,0,0,1-.489,1.007C8.9,7.2,8.743,7.375,8.581,7.542,8.1,8.049,7.645,8.528,7.146,8.986L7.12,9.013a1.081,1.081,0,0,0-.26,1.2c0.005,0.016.01,0.027,0.016,0.043A12.77,12.77,0,0,0,8.7,13.329a21.074,21.074,0,0,0,5.013,4.73,7.349,7.349,0,0,0,.686.388,6.359,6.359,0,0,1,.572.323c0.021,0.011.036,0.022,0.057,0.032a1.056,1.056,0,0,0,.5.135,1.09,1.09,0,0,0,.775-0.366l1.945-2.015a1.357,1.357,0,0,1,.951-0.48,1.291,1.291,0,0,1,.92.48L23.261,19.8a1.329,1.329,0,0,1-.015,2.031c-0.218.242-.447,0.474-0.692,0.717a15.3,15.3,0,0,0-1.087,1.169,2.808,2.808,0,0,1-2.231.981c-0.088,0-.182-0.005-0.27-0.011a12.207,12.207,0,0,1-4.482-1.39,25.446,25.446,0,0,1-8.429-6.842A24.193,24.193,0,0,1,1.946,9.369,8.969,8.969,0,0,1,1.291,5.614Z"/>
</svg>
