<svg xmlns="http://www.w3.org/2000/svg" width="29" height="29" viewBox="0 0 29 29">
  <defs>
    <style>
      .cls-1 {
        fill: #fff;
        fill-rule: evenodd;
      }
    </style>
  </defs>
  <path id="Forma_1" data-name="Forma 1" class="cls-1" d="M24.85,4.35A14.5,14.5,0,0,0,0,14.5,14.5,14.5,0,0,0,24.85,24.65,14.487,14.487,0,0,0,24.85,4.35ZM4.818,5.006A13.432,13.432,0,0,1,10.8,1.45a10.571,10.571,0,0,0-2.386,3,16.34,16.34,0,0,0-1.13,2.563H3.191A13.624,13.624,0,0,1,4.818,5.006ZM2.626,7.952H6.982a23.255,23.255,0,0,0-.891,6.08H0.948A13.434,13.434,0,0,1,2.626,7.952ZM0.948,14.968H6.091a23.292,23.292,0,0,0,.891,6.08H2.62A13.52,13.52,0,0,1,.948,14.968Zm3.87,9.025a13.713,13.713,0,0,1-1.633-2.015h4.1a16.4,16.4,0,0,0,1.13,2.569,10.47,10.47,0,0,0,2.386,3A13.368,13.368,0,0,1,4.818,23.994Zm9.214,4.042c-1.8-.206-3.494-1.581-4.8-3.939a15.222,15.222,0,0,1-.965-2.112h5.766v6.051h0Zm0-6.987H7.958a22.193,22.193,0,0,1-.93-6.08h7v6.08h0Zm0-7.016h-7a22.16,22.16,0,0,1,.93-6.08h6.074v6.08h0Zm0-7.016H8.272A16.243,16.243,0,0,1,9.231,4.9c1.307-2.358,3-3.733,4.8-3.939V7.016h0Zm14.02,7.016H22.909a23.29,23.29,0,0,0-.89-6.08h4.356A13.435,13.435,0,0,1,28.052,14.032Zm-3.87-9.025a14.037,14.037,0,0,1,1.633,2.009h-4.1a16.1,16.1,0,0,0-1.13-2.563,10.474,10.474,0,0,0-2.386-3A13.368,13.368,0,0,1,24.182,5.006ZM14.968,0.965c1.8,0.206,3.494,1.581,4.8,3.939a14.3,14.3,0,0,1,.959,2.112H14.968V0.965Zm0,6.987h6.074a22.158,22.158,0,0,1,.93,6.08h-7V7.952Zm0,7.016h7a22.158,22.158,0,0,1-.93,6.08H14.968v-6.08Zm0,13.067V21.984h5.76a14.924,14.924,0,0,1-.965,2.112C18.462,26.454,16.772,27.83,14.968,28.035Zm9.214-4.042A13.433,13.433,0,0,1,18.2,27.55a10.571,10.571,0,0,0,2.386-3,16.17,16.17,0,0,0,1.13-2.569h4.1A13.818,13.818,0,0,1,24.182,23.994Zm2.2-2.946H22.024a23.57,23.57,0,0,0,.885-6.08h5.143A13.5,13.5,0,0,1,26.38,21.048Z"/>
</svg>
