<?xml version="1.0" encoding="iso-8859-1"?>
<!-- Generator: Adobe Illustrator 19.0.0, SVG Export Plug-In . SVG Version: 6.00 Build 0)  -->
<svg xmlns="http://www.w3.org/2000/svg" xmlns:xlink="http://www.w3.org/1999/xlink" version="1.1" id="Capa_1" x="0px" y="0px" viewBox="0 0 512 512" style="enable-background:new 0 0 512 512;" xml:space="preserve" width="512px" height="512px">
<g>
	<g>
		<path d="M438.07,56.867c0-4.717-3.846-8.534-8.586-8.534c-4.733,0-8.579,3.817-8.579,8.534v12.187    c-1.439,0.177-2.908,0.466-4.432,0.99L78.817,185.929c-11.886,4.119-22.9,7.488-24.471,7.488c-1.57,0-11.862-4.973-22.86-11.049    l-11.487-6.344c-3.112-1.719-6.048-2.526-8.683-2.526C4.631,173.497,0,178.748,0,187.732V324.28    c0,8.983,4.631,14.235,11.316,14.235c2.628,0,5.57-0.814,8.683-2.526l11.487-6.344c10.998-6.088,21.29-11.061,22.86-11.061    c1.57,0,12.585,3.374,24.471,7.488l53.055,18.207l-10.691,31.338c-1.331,3.897-1.969,7.898-1.969,11.823    c0,15.424,9.746,29.825,25.227,35.081l64.56,21.791c3.914,1.32,7.943,1.957,11.897,1.957c15.504,0,29.989-9.69,35.263-25.085    l10.463-30.661l149.856,51.428c1.53,0.53,2.992,0.814,4.432,0.99v12.192c0,4.711,3.846,8.534,8.579,8.534    c4.74,0,8.586-3.824,8.586-8.534V56.867H438.07z M239.904,415.7c-2.777,8.227-10.679,13.507-19.014,13.501    c-2.122,0-4.261-0.335-6.383-1.053l-64.553-21.791c-8.273-2.759-13.587-10.628-13.587-18.917c0-2.1,0.341-4.221,1.064-6.332    l10.657-31.258l102.303,35.11L239.904,415.7z M352.767,402.033L84.466,309.954c-24.356-8.437-27.964-8.437-30.12-8.437    c-3.431,0-7.306,0-31.195,13.199l-5.991,3.305V193.98l5.991,3.311c23.89,13.194,27.771,13.194,31.195,13.194    c2.156,0,5.764,0,30.12-8.437l268.301-92.075V402.033z M420.91,425.412l-50.978-17.49V104.079l50.978-17.495V425.412z" fill="#a0b187"/>
	</g>
</g>
<g>
	<g>
		<path d="M503.414,247.466h-44.566c-4.74,0-8.586,3.823-8.586,8.534s3.846,8.534,8.586,8.534h44.566    c4.74,0,8.586-3.824,8.586-8.534S508.154,247.466,503.414,247.466z" fill="#a0b187"/>
	</g>
</g>
<g>
	<g>
		<path d="M496.382,368.164l-28.601-17.069c-4.057-2.424-9.337-1.109-11.766,2.925c-2.44,4.045-1.12,9.291,2.947,11.715    l28.601,17.069c4.063,2.429,9.337,1.109,11.766-2.93C501.776,375.834,500.451,370.587,496.382,368.164z" fill="#a0b187"/>
	</g>
</g>
<g>
	<g>
		<path d="M499.329,132.128c-2.435-4.039-7.703-5.348-11.766-2.925l-28.601,17.069c-4.068,2.424-5.383,7.67-2.947,11.709    c2.435,4.039,7.709,5.349,11.766,2.925l28.601-17.069C500.45,141.413,501.769,136.167,499.329,132.128z" fill="#a0b187"/>
	</g>
</g>
<g>
	<g>
		<path d="M254.088,177.542c-1.559-4.449-6.458-6.793-10.935-5.24l-57.572,20.015c-4.472,1.553-6.833,6.423-5.268,10.873    c1.564,4.449,6.458,6.793,10.935,5.24l57.572-20.015C253.297,186.861,255.652,181.997,254.088,177.542z" fill="#a0b187"/>
	</g>
</g>
<g>
</g>
<g>
</g>
<g>
</g>
<g>
</g>
<g>
</g>
<g>
</g>
<g>
</g>
<g>
</g>
<g>
</g>
<g>
</g>
<g>
</g>
<g>
</g>
<g>
</g>
<g>
</g>
<g>
</g>
</svg>
