<?xml version="1.0" encoding="iso-8859-1"?>
<!-- Generator: Adobe Illustrator 19.0.0, SVG Export Plug-In . SVG Version: 6.00 Build 0)  -->
<svg xmlns="http://www.w3.org/2000/svg" xmlns:xlink="http://www.w3.org/1999/xlink" version="1.1" id="Layer_1" x="0px" y="0px" viewBox="0 0 512 512" style="enable-background:new 0 0 512 512;" xml:space="preserve" width="512px" height="512px">
<g>
	<g>
		<path d="M461.642,50.358c-67.144-67.144-176.395-67.144-243.539,0L50.358,218.103c-67.144,67.144-67.144,176.395,0,243.539    C83.93,495.214,128.029,512,172.127,512c44.099,0,88.198-16.786,121.769-50.358l167.745-167.745    C528.786,226.753,528.786,117.502,461.642,50.358z M447.341,279.595L279.595,447.34c-28.706,28.706-66.872,44.514-107.467,44.514    c-40.596,0-78.763-15.81-107.469-44.515c-59.257-59.259-59.257-155.677,0-214.936L232.404,64.659    c29.629-29.629,68.549-44.443,107.469-44.443c38.92,0,77.839,14.815,107.469,44.443    C506.598,123.917,506.598,220.336,447.341,279.595z" fill="#a0b187"/>
	</g>
</g>
<g>
	<g>
		<path d="M465.802,167.272c-0.202-5.282-4.438-9.518-9.719-9.719c-26.768-1.022-51.903-11.98-70.779-30.855    c-18.875-18.876-29.833-44.012-30.856-70.781c-0.202-5.282-4.438-9.517-9.719-9.719c-35.051-1.339-69.315,12.06-94.018,36.765    L82.963,250.708c-49.165,49.165-49.165,129.163,0,178.327c24.582,24.582,56.873,36.874,89.163,36.874    c32.29,0,64.582-12.29,89.163-36.874L429.034,261.29C453.739,236.588,467.141,202.319,465.802,167.272z M414.735,246.989    L246.989,414.735c-41.279,41.278-108.445,41.278-149.724,0c-41.279-41.279-41.279-108.445,0-149.724L265.011,97.265    c18.621-18.621,43.728-29.589,69.973-30.816c3.254,28.193,15.838,54.371,36.018,74.552c20.18,20.18,46.357,32.764,74.551,36.017    C444.323,203.263,433.356,228.368,414.735,246.989z" fill="#a0b187"/>
	</g>
</g>
<g>
	<g>
		<path d="M310.002,124.886c-3.949-3.949-10.353-3.949-14.301,0L124.886,295.7c-3.949,3.949-3.949,10.353,0,14.301    c1.974,1.974,4.563,2.962,7.151,2.962c2.588,0,5.176-0.987,7.15-2.962l170.814-170.814    C313.951,135.239,313.951,128.835,310.002,124.886z" fill="#a0b187"/>
	</g>
</g>
<g>
	<g>
		<path d="M348.557,163.443c-3.949-3.949-10.353-3.949-14.301,0L163.443,334.257c-3.949,3.949-3.949,10.353,0,14.301    c1.974,1.974,4.563,2.962,7.15,2.962s5.176-0.987,7.15-2.962l170.814-170.814C352.508,173.794,352.508,167.391,348.557,163.443z" fill="#a0b187"/>
	</g>
</g>
<g>
	<g>
		<path d="M387.113,201.998c-3.949-3.949-10.353-3.949-14.301,0L201.998,372.814c-3.949,3.948-3.949,10.352,0,14.301    c1.974,1.974,4.563,2.962,7.15,2.962s5.176-0.987,7.15-2.962l170.814-170.815C391.062,212.35,391.062,205.946,387.113,201.998z" fill="#a0b187"/>
	</g>
</g>
<g>
	<g>
		<path d="M415.184,66.833c-16.532,0-29.984,13.451-29.984,29.984c0,16.533,13.451,29.984,29.984,29.984    c16.534,0,29.984-13.451,29.984-29.984C445.168,80.284,431.716,66.833,415.184,66.833z M415.184,106.573    c-5.38,0-9.758-4.378-9.758-9.758c0-5.38,4.378-9.758,9.758-9.758c5.381,0,9.758,4.378,9.758,9.758    C424.942,102.195,420.564,106.573,415.184,106.573z" fill="#a0b187"/>
	</g>
</g>
<g>
</g>
<g>
</g>
<g>
</g>
<g>
</g>
<g>
</g>
<g>
</g>
<g>
</g>
<g>
</g>
<g>
</g>
<g>
</g>
<g>
</g>
<g>
</g>
<g>
</g>
<g>
</g>
<g>
</g>
</svg>
