<?xml version="1.0" encoding="iso-8859-1"?>
<!-- Generator: Adobe Illustrator 19.0.0, SVG Export Plug-In . SVG Version: 6.00 Build 0)  -->
<svg xmlns="http://www.w3.org/2000/svg" xmlns:xlink="http://www.w3.org/1999/xlink" version="1.1" id="Capa_1" x="0px" y="0px" viewBox="0 0 508.008 508.008" style="enable-background:new 0 0 508.008 508.008;" xml:space="preserve" width="512px" height="512px">
<g>
	<g>
		<path d="M508.007,461.104c-1.1-40.1-28.7-74.1-66-86.9c15-11,25.2-29,25.2-48.5c0-30.5-25.8-55.3-57.4-55.3    c-31.6,0-57.4,24.8-57.4,55.3c0,19.5,10.2,37.6,25.2,48.5c-37.3,12.8-64.8,46.9-66,86.9c-0.2,5.5,4.2,46.9,4.2,46.9h188    C503.807,508.004,508.107,466.604,508.007,461.104z M368.807,325.704c0-21.4,18.4-38.9,41-38.9c22.6,0,41,17.4,41,38.9    c0,22.5-19.5,43.1-41,43.1C388.407,368.704,368.807,348.204,368.807,325.704z M489.207,491.604h-158.7c0,0-2.5-25.3-2.4-30    c1.2-42.2,37.9-76.5,81.8-76.5s80.6,34.3,81.8,76.5C491.707,466.304,489.207,491.604,489.207,491.604z" fill="#a0b187"/>
	</g>
</g>
<g>
	<g>
		<path d="M196.407,461.104c-1.2-40.1-28.7-74.1-66-86.9c15-11,25.2-29,25.2-48.5c0-30.5-25.8-55.3-57.4-55.3    c-31.6,0-57.4,24.8-57.4,55.3c0,19.5,10.2,37.6,25.2,48.5c-37.3,12.8-64.9,46.8-66,86.9c-0.2,5.5,4.2,46.9,4.2,46.9h188    C192.207,508.004,196.507,466.604,196.407,461.104z M57.107,325.704c0-21.4,18.4-38.9,41-38.9c22.6,0,41,17.4,41,38.9    c0,22.5-19.5,43.1-41,43.1S57.107,348.204,57.107,325.704z M177.507,491.604h-158.7c0,0-2.5-25.3-2.4-30    c1.2-42.2,37.9-76.5,81.8-76.5s80.6,34.3,81.8,76.5C180.007,466.304,177.507,491.604,177.507,491.604z" fill="#a0b187"/>
	</g>
</g>
<g>
	<g>
		<path d="M352.207,190.704c-1.1-40.1-28.7-74.1-66-86.9c15-11,25.2-29,25.2-48.5c0-30.5-25.7-55.3-57.4-55.3s-57.4,24.8-57.4,55.3    c0,19.5,10.2,37.6,25.2,48.5c-37.3,12.8-64.8,46.9-66,86.9c-0.2,5.5,4.2,46.9,4.2,46.9h188    C348.007,237.604,352.307,196.204,352.207,190.704z M213.007,55.304c0-21.4,18.4-38.9,41-38.9c22.6,0,41,17.4,41,38.9    c0,22.5-19.5,43.1-41,43.1S213.007,77.804,213.007,55.304z M333.407,221.204h-158.7c0,0-2.5-25.3-2.4-30    c1.1-42.2,37.8-76.5,81.7-76.5c43.9,0,80.6,34.3,81.8,76.5C335.907,195.904,333.407,221.204,333.407,221.204z" fill="#a0b187"/>
	</g>
</g>
<g>
	<g>
		<polygon points="300.807,321.904 289.207,333.504 299.807,344.104 262.207,344.104 262.207,254.004 245.807,254.004     245.807,344.104 208.007,344.104 218.607,333.504 207.007,321.904 176.607,352.304 207.007,382.704 218.607,371.104     208.007,360.504 299.807,360.504 289.207,371.104 300.807,382.704 331.207,352.304   " fill="#a0b187"/>
	</g>
</g>
<g>
</g>
<g>
</g>
<g>
</g>
<g>
</g>
<g>
</g>
<g>
</g>
<g>
</g>
<g>
</g>
<g>
</g>
<g>
</g>
<g>
</g>
<g>
</g>
<g>
</g>
<g>
</g>
<g>
</g>
</svg>
