<svg xmlns="http://www.w3.org/2000/svg" width="28" height="20" viewBox="0 0 28 20">
  <defs>
    <style>
      .cls-1 {
        fill: #fff;
        fill-rule: evenodd;
      }
    </style>
  </defs>
  <path id="Forma_1" data-name="Forma 1" class="cls-1" d="M25.832,0H2.166A2.181,2.181,0,0,0,0,2.17V17.83A2.181,2.181,0,0,0,2.166,20H25.832A2.181,2.181,0,0,0,28,17.83V2.17A2.117,2.117,0,0,0,25.832,0Zm-8.1,10.595,9.023-6.977V17.623Zm-15.52-9.3H25.832a0.944,0.944,0,0,1,.877.672l-11.962,9.3a1.39,1.39,0,0,1-1.65,0L1.289,2.067A0.991,0.991,0,0,1,2.217,1.292ZM1.289,17.623V3.721l8.92,6.925Zm0.928,1.189a0.386,0.386,0,0,1-.258-0.052l9.333-7.287L12.323,12.3a2.572,2.572,0,0,0,1.6.517,2.474,2.474,0,0,0,1.6-.517l1.134-.879L26.09,18.76a0.464,0.464,0,0,1-.258.052H2.217Z"/>
</svg>
